<svg xmlns="http://www.w3.org/2000/svg" viewBox="0 0 1600 900" role="img" aria-labelledby="title desc">
  <title id="title">Architecture overview placeholder</title>
  <desc id="desc">Template architecture diagram showing local tooling, API Gateway, Lambda, and Secrets Manager.</desc>
  <rect width="1600" height="900" fill="#f5f5f4" rx="32" />
  <text x="120" y="120" fill="#18181b" font-family="Nunito Sans, sans-serif" font-size="54" font-weight="700">Architecture overview</text>
  <text x="120" y="170" fill="#52525b" font-family="Nunito Sans, sans-serif" font-size="28">Template diagram for the PKI issuer project page</text>
  <g font-family="Nunito Sans, sans-serif">
    <rect x="120" y="260" width="300" height="180" rx="28" fill="#e0f2fe" stroke="#38bdf8" stroke-width="4" />
    <text x="270" y="330" text-anchor="middle" fill="#0f172a" font-size="36" font-weight="700">Local bootstrap</text>
    <text x="270" y="378" text-anchor="middle" fill="#334155" font-size="24">CA generation + Terraform</text>

    <rect x="650" y="180" width="300" height="160" rx="28" fill="#dbeafe" stroke="#2563eb" stroke-width="4" />
    <text x="800" y="255" text-anchor="middle" fill="#172554" font-size="36" font-weight="700">API Gateway</text>
    <text x="800" y="300" text-anchor="middle" fill="#1e40af" font-size="24">POST /issue-cert</text>

    <rect x="650" y="430" width="300" height="160" rx="28" fill="#dcfce7" stroke="#16a34a" stroke-width="4" />
    <text x="800" y="505" text-anchor="middle" fill="#14532d" font-size="36" font-weight="700">Go Lambda</text>
    <text x="800" y="550" text-anchor="middle" fill="#166534" font-size="24">CSR validation + signing</text>

    <rect x="1180" y="305" width="300" height="160" rx="28" fill="#ede9fe" stroke="#7c3aed" stroke-width="4" />
    <text x="1330" y="380" text-anchor="middle" fill="#4c1d95" font-size="36" font-weight="700">Secrets Manager</text>
    <text x="1330" y="425" text-anchor="middle" fill="#5b21b6" font-size="24">CA cert + private key</text>
  </g>
  <g stroke="#64748b" stroke-width="8" fill="none" stroke-linecap="round">
    <path d="M420 350h180" />
    <path d="M800 340v70" />
    <path d="M950 385h180" />
  </g>
  <g fill="#64748b">
    <polygon points="590,338 620,350 590,362" />
    <polygon points="788,402 800,432 812,402" />
    <polygon points="1120,373 1150,385 1120,397" />
  </g>
  <text x="120" y="760" fill="#71717a" font-family="Nunito Sans, sans-serif" font-size="26">Replace this with a real infrastructure diagram when assets are ready.</text>
</svg>