<svg xmlns="http://www.w3.org/2000/svg" xmlns:xlink="http://www.w3.org/1999/xlink" xmlns:lucid="lucid" width="1436" height="1159"><g transform="translate(-953 -517)" lucid:page-tab-id="0_0"><path d="M500 0h2000v2000H500z" fill="#fff"/><path d="M966.5 538.35a12 12 0 0 1 12-12h1384.53a12 12 0 0 1 12 12v1115.3a12 12 0 0 1-12 12H978.5a12 12 0 0 1-12-12z" stroke="#979ea8" stroke-width="4" fill="#fff"/><path d="M966.5 429.82a12 12 0 0 1 12-12h481.64a12 12 0 0 1 12 12v72.53a12 12 0 0 1-12 12H978.5a12 12 0 0 1-12-12z" stroke="#979ea8" stroke-width="4" fill="#979ea8"/><use xlink:href="#a" transform="matrix(1,0,0,1,982.4957851055956,433.822834166916) translate(0 51.90104166666667)"/><use xlink:href="#b" transform="matrix(1,0,0,1,982.4957851055956,433.822834166916) translate(268.671875 51.90104166666667)"/><path d="M1164.36 734.43v10.02m0 10.03v20.05m0 10.03v20.06m0 10.02v20.06m0 10.02v20.06m0 10.03v20.06m0 10.03v20.04m0 10.03v20.05m0 10.03v20.06m0 10.03v20.06m0 10v20.07m0 10.03v20.05m0 10.03v20.05m0 10.03v20.05m0 10.04v20.05m0 10.02v20.06m0 10.02v20.06m0 10.02v20.06m0 10.03v20.05m0 10.03V1316m0 10.03v20.05m0 10.03v20.06m0 10.03v20.05m0 10.02v20.06m0 10.02v20.06m0 10.04v20.05m0 10.02v20.05m0 10.03v10.03a1.83 1.83 0 0 0 1.83 1.83M1164.36 734.44v-3.5M1166.18 1548.46h.5M1478.32 727.85v10.03m0 10.02v20.05m0 10.02V798m0 10.03v20.05m0 10.02v20.05m0 10.02v20.05m0 10.02v20.04m0 10.03v20.05m0 10.02v20.05m0 10.02v20.05m0 10v20.06m0 10.02v20.05m0 10.02v20.04m0 10v20.06m0 10.02v20.05m0 10.02v20.05m0 10.02v20.04m0 10.03v20.03m0 10.03v20.04m0 10.02v20.05m0 10.02v20.04m0 10.02v20.05m0 10.03v20.04m0 10.03v20.04m0 10.02v20.05m0 10.03v20.05m0 10.02v20.04m0 10.03v10.02" stroke="#333" fill="none"/><path d="M1478.8 727.87h-.95v-.52h.95z" stroke="#333" stroke-width=".05" fill="#333"/><path d="M1478.32 1539.68v.5M1839.15 727.85v9.78m0 9.77v19.55m0 9.78v19.54m0 9.78v19.55m0 9.77v19.55m0 9.77v19.54m0 9.78v19.55m0 9.77v19.55m0 9.76v19.55m0 9.8v19.53m0 9.78v19.56m0 9.77v19.55m0 9.77v19.55m0 9.78v19.55m0 9.77V1148.15m0 9.77v19.55m0 9.78v19.54m0 9.77v19.55m0 9.77v19.54m0 9.77v19.56m0 9.78v19.55m0 9.76v19.55m0 9.78v19.55m0 9.78v19.55m0 9.78v19.55m0 9.77v19.55m0 9.77v19.55m0 9.78v19.55m0 9.77v9.77" stroke="#333" fill="none"/><path d="M1839.63 727.87h-.95v-.52h.95z" stroke="#333" stroke-width=".05" fill="#333"/><path d="M1839.15 1548.88v.5" stroke="#333" fill="none"/><path d="M1819.15 863.75a8 8 0 0 1 8-8h24a8 8 0 0 1 8 8v633.9a8 8 0 0 1-8 8h-24a8 8 0 0 1-8-8z" stroke="#f2f2f2" fill="#ced4db"/><path d="M2200 727.85v9.77m0 9.76v19.53m0 9.77v19.53m0 9.76v19.53m0 9.75v19.52m0 9.77v19.53m0 9.76v19.52m0 9.77v19.52m0 9.77v19.53m0 9.77v19.52m0 9.77v19.5m0 9.78v19.52m0 9.76v19.53m0 9.75v19.53m0 9.76v19.54m0 9.76v19.53m0 9.76v19.53m0 9.76v19.54m0 9.76v19.53m0 9.76v19.52m0 9.76v19.53m0 9.77v19.52m0 9.76v19.52m0 9.77v19.52m0 9.77v19.52m0 9.77v19.52m0 9.77v19.52m0 9.76v19.53m0 9.76v9.76" stroke="#333" fill="none"/><path d="M2200.46 727.87h-.95v-.52h.96z" stroke="#333" stroke-width=".05" fill="#333"/><path d="M2200 1547.94v.52" stroke="#333" fill="none"/><path d="M2178.9 1214.35a8 8 0 0 1 8-8h24a8 8 0 0 1 8 8v104a8 8 0 0 1-8 8h-24a8 8 0 0 1-8-8z" stroke="#f2f2f2" fill="#ced4db"/><path d="M1860.15 1236.35h301.88" stroke="#333" fill="none"/><path d="M1860.17 1236.83h-.52v-.95h.52z" stroke="#333" stroke-width=".05" fill="#333"/><path d="M2176.8 1236.35l-14.27 4.64v-9.28z" stroke="#333" fill="#333"/><use xlink:href="#c" transform="matrix(1,0,0,1,1916.5457643474515,1240.354084166917) translate(0.0049999999999954525 17.4375)"/><use xlink:href="#d" transform="matrix(1,0,0,1,1916.5457643474515,1240.354084166917) translate(48.186640624999995 17.4375)"/><use xlink:href="#e" transform="matrix(1,0,0,1,1916.5457643474515,1240.354084166917) translate(78.8165234375 17.4375)"/><use xlink:href="#f" transform="matrix(1,0,0,1,1916.5457643474515,1240.354084166917) translate(137.0176953125 17.4375)"/><path d="M1459.4 804.08a8 8 0 0 1 8-8h24a8 8 0 0 1 8 8v693.56a8 8 0 0 1-8 8h-24a8 8 0 0 1-8-8z" stroke="#f2f2f2" fill="#ced4db"/><path d="M1744.12 614.35a8 8 0 0 1 8-8h174.07a8 8 0 0 1 8 8v105a8 8 0 0 1-8 8H1752.1a8 8 0 0 1-8-8z" stroke="#000" stroke-opacity="0" fill="#6db1ff"/><use xlink:href="#g" transform="matrix(1,0,0,1,1752.1171722000809,614.354084166916) translate(56.17708333333333 58.51432291666667)"/><path d="M2104.95 614.35a8 8 0 0 1 8-8h174.08a8 8 0 0 1 8 8v105a8 8 0 0 1-8 8h-174.08a8 8 0 0 1-8-8z" stroke="#000" stroke-opacity="0" fill="#6db1ff"/><use xlink:href="#h" transform="matrix(1,0,0,1,2112.9511705283003,614.354084166916) translate(20.910546874999994 58.51432291666667)"/><use xlink:href="#i" transform="matrix(1,0,0,1,2112.9511705283003,614.354084166916) translate(84.81575520833333 58.51432291666667)"/><path d="M1144.6 658.14v-.2a19.75 19.75 0 0 1 19.76-19.75 19.75 19.75 0 0 1 19.75 19.74 19.75 19.75 0 0 1-19.74 19.75 19.75 19.75 0 0 1-19.75-19.76v-.2" stroke="#333" fill="#fff"/><path d="M1124.36 646.2a8 8 0 0 1 8-8h64a8 8 0 0 1 8 8v142a8 8 0 0 1-8 8h-64a8 8 0 0 1-8-8z" fill="none"/><path d="M1164.36 677.7V733l40 63.2m-40-63.2l-40 63.2m0-98.76h80M1167.2 882.02H1442.5M1167.2 882.02h-.5" stroke="#333" fill="none"/><path d="M1457.28 882.02l-14.27 4.63v-9.27z" stroke="#333" fill="#333"/><use xlink:href="#j" transform="matrix(1,0,0,1,1199.3802194430332,886.0196361092749) translate(0.0049999999999954525 16.01666666666667)"/><use xlink:href="#k" transform="matrix(1,0,0,1,1199.3802194430332,886.0196361092749) translate(59.05838541666667 16.01666666666667)"/><use xlink:href="#l" transform="matrix(1,0,0,1,1199.3802194430332,886.0196361092749) translate(97.03338541666668 16.01666666666667)"/><use xlink:href="#m" transform="matrix(1,0,0,1,1199.3802194430332,886.0196361092749) translate(112.62218750000001 16.01666666666667)"/><use xlink:href="#n" transform="matrix(1,0,0,1,1199.3802194430332,886.0196361092749) translate(196.13651041666668 16.01666666666667)"/><path d="M2177.9 1295.35h-301.87" stroke="#333" fill="none"/><path d="M2178.4 1295.83h-.5v-.95h.5z" stroke="#333" stroke-width=".05" fill="#333"/><path d="M1861.27 1295.35l14.27-4.63v9.27z" stroke="#333" fill="#333"/><use xlink:href="#o" transform="matrix(1,0,0,1,1976.126819034951,1299.3529694426088) translate(0.005000000000002558 17.4375)"/><use xlink:href="#p" transform="matrix(1,0,0,1,1976.126819034951,1299.3529694426088) translate(30.634882812500003 17.4375)"/><path d="M1500.4 1100.35h301.87" stroke="#333" fill="none"/><path d="M1500.4 1100.83h-.5v-.95h.5z" stroke="#333" stroke-width=".05" fill="#333"/><path d="M1817.04 1100.35l-14.27 4.64v-9.28z" stroke="#333" fill="#333"/><use xlink:href="#q" transform="matrix(1,0,0,1,1525.090575995057,1104.3540841669167) translate(0.0049999999999954525 16.01666666666667)"/><use xlink:href="#r" transform="matrix(1,0,0,1,1525.090575995057,1104.3540841669167) translate(68.92348958333334 16.01666666666667)"/><use xlink:href="#s" transform="matrix(1,0,0,1,1525.090575995057,1104.3540841669167) translate(125.97479166666668 16.01666666666667)"/><use xlink:href="#t" transform="matrix(1,0,0,1,1525.090575995057,1104.3540841669167) translate(161.40682291666667 16.01666666666667)"/><use xlink:href="#u" transform="matrix(1,0,0,1,1525.090575995057,1104.3540841669167) translate(102.23234375000001 36.02135416666667)"/><use xlink:href="#v" transform="matrix(1,0,0,1,1525.090575995057,1104.3540841669167) translate(106.88234375000002 36.02135416666667)"/><path d="M1383.28 614.35a8 8 0 0 1 8-8h174.08a8 8 0 0 1 8 8v105a8 8 0 0 1-8 8h-174.08a8 8 0 0 1-8-8z" stroke="#000" stroke-opacity="0" fill="#6db1ff"/><g><use xlink:href="#w" transform="matrix(1,0,0,1,1391.2831738718605,614.354084166916) translate(37.936328124999996 58.51432291666667)"/><use xlink:href="#x" transform="matrix(1,0,0,1,1391.2831738718605,614.354084166916) translate(68.99283854166666 58.51432291666667)"/></g><path d="M1136.9 608a8 8 0 0 1 8-8h38.9a8 8 0 0 1 8 8v14a8 8 0 0 1-8 8h-38.9a8 8 0 0 1-8-8z" fill="none"/><g><use xlink:href="#y" transform="matrix(1,0,0,1,1141.9020102276006,605) translate(0.04921874999999787 16.514322916666668)"/></g><path d="M1818.15 1369.33h-301.87" stroke="#3a414a" fill="none"/><path d="M1818.65 1369.8h-.5v-.94h.5z" stroke="#3a414a" stroke-width=".05" fill="#3a414a"/><path d="M1501.5 1369.33l14.28-4.63v9.27z" stroke="#3a414a" fill="#3a414a"/><g><use xlink:href="#z" transform="matrix(1,0,0,1,1574.732568182557,1373.3333333333333) translate(0.0049999999999954525 17.4375)"/><use xlink:href="#A" transform="matrix(1,0,0,1,1574.732568182557,1373.3333333333333) translate(46.420039062499995 17.4375)"/><use xlink:href="#B" transform="matrix(1,0,0,1,1574.732568182557,1373.3333333333333) translate(87.7637890625 17.4375)"/><use xlink:href="#C" transform="matrix(1,0,0,1,1574.732568182557,1373.3333333333333) translate(124.5899609375 17.4375)"/><use xlink:href="#D" transform="matrix(1,0,0,1,1574.732568182557,1373.3333333333333) translate(41.608027343749995 43.572656249999994)"/></g><path d="M1458.4 1416h-277.66" stroke="#3a414a" fill="none"/><path d="M1458.9 1416.47h-.52v-.94h.5z" stroke="#3a414a" stroke-width=".05" fill="#3a414a"/><path d="M1165.98 1416l14.26-4.63v9.27z" stroke="#3a414a" fill="#3a414a"/><g><use xlink:href="#E" transform="matrix(1,0,0,1,1222.8722330729165,1420) translate(0.0049999999999954525 17.4375)"/><use xlink:href="#F" transform="matrix(1,0,0,1,1222.8722330729165,1420) translate(61.106562499999995 17.4375)"/><use xlink:href="#G" transform="matrix(1,0,0,1,1222.8722330729165,1420) translate(104.7442578125 17.4375)"/><use xlink:href="#H" transform="matrix(1,0,0,1,1222.8722330729165,1420) translate(195.6846875 17.4375)"/><use xlink:href="#I" transform="matrix(1,0,0,1,1222.8722330729165,1420) translate(30.731562499999995 43.572656249999994)"/><use xlink:href="#J" transform="matrix(1,0,0,1,1222.8722330729165,1420) translate(87.983515625 43.572656249999994)"/></g><defs><path d="M657 26c-323 0-524-166-541-416h195c15 169 171 246 346 246 202 0 356-106 356-265 5-203-294-238-475-293-239-73-380-191-380-389 0-252 224-419 512-419 294 0 499 171 508 396H992c-17-145-151-228-328-228-193 0-321 102-321 242 0 156 175 211 284 241l149 41c160 44 422 134 422 412 0 244-197 432-541 432" id="K"/><path d="M628 24c-324 0-524-230-524-574 0-343 198-582 503-582 237 0 487 146 487 559v75H286c9 234 145 362 343 362 132 0 231-58 273-172l174 48C1024-91 857 24 628 24zM287-650h624c-17-190-120-322-304-322-192 0-309 151-320 322" id="L"/><path d="M1096 418H916v-591h-14C865-111 790 24 577 24c-279 0-473-224-473-580 0-354 195-576 474-576 218 0 287 134 324 193h20v-179h174V418zM604-137c203 0 314-172 314-421 0-247-108-413-314-413-212 0-317 181-317 413 0 235 108 421 317 421" id="M"/><path d="M537 14c-226 0-379-139-379-422v-710h180v695c0 172 97 275 253 275 160 0 281-109 281-300v-670h181V0H879v-209C806-46 684 14 537 14" id="N"/><path d="M338-670V0H158v-1118h173l1 207c72-158 192-221 342-221 226 0 378 139 378 422V0H872v-695c0-172-96-275-252-275-161 0-282 109-282 300" id="O"/><path d="M613 24c-304 0-509-231-509-576 0-350 205-580 509-580 216 0 392 114 453 309l-173 49c-33-115-133-197-280-197-223 0-326 196-326 419 0 220 103 415 326 415 150 0 252-85 285-206l172 49C1010-95 832 24 613 24" id="P"/><g id="a"><use transform="matrix(0.026041666666666668,0,0,0.026041666666666668,0,0)" xlink:href="#K"/><use transform="matrix(0.026041666666666668,0,0,0.026041666666666668,34.21875,0)" xlink:href="#L"/><use transform="matrix(0.026041666666666668,0,0,0.026041666666666668,65.3125,0)" xlink:href="#M"/><use transform="matrix(0.026041666666666668,0,0,0.026041666666666668,97.96875,0)" xlink:href="#N"/><use transform="matrix(0.026041666666666668,0,0,0.026041666666666668,129.50520833333334,0)" xlink:href="#L"/><use transform="matrix(0.026041666666666668,0,0,0.026041666666666668,160.59895833333334,0)" xlink:href="#O"/><use transform="matrix(0.026041666666666668,0,0,0.026041666666666668,192.109375,0)" xlink:href="#P"/><use transform="matrix(0.026041666666666668,0,0,0.026041666666666668,222.578125,0)" xlink:href="#L"/></g><path d="M577 24c-279 0-473-224-473-580 0-354 195-576 474-576 218 0 287 134 324 193h14v-551h180V0H922v-173h-20C865-111 790 24 577 24zm27-161c203 0 314-172 314-421 0-247-108-413-314-413-212 0-317 181-317 413 0 235 108 421 317 421" id="Q"/><path d="M158 0v-1118h180V0H158zm91-1301c-68 0-125-53-125-119s57-119 125-119c69 0 126 53 126 119s-57 119-126 119" id="R"/><path d="M471 26C259 26 90-98 90-318c0-256 228-303 435-329 202-27 287-16 287-108 0-139-79-219-234-219-161 0-248 86-283 164l-173-57c86-203 278-265 451-265 150 0 419 46 419 395V0H815v-152h-12C765-73 660 26 471 26zm31-159c199 0 310-134 310-271v-155c-30 35-226 55-295 64-131 17-246 59-246 186 0 116 97 176 231 176" id="S"/><path d="M611 442c-248 0-391-105-460-228l146-94c47 65 117 165 314 165 178 0 307-82 307-266v-224h-17C863-141 792-18 576-18c-268 0-472-195-472-546 0-346 197-568 476-568 216 0 288 133 326 193h17v-179h175V29c0 289-215 413-487 413zm-5-620c203 0 314-146 314-390 0-237-108-403-314-403-213 0-319 180-319 403 0 230 109 390 319 390" id="T"/><path d="M158 0v-1118h174v172h12c41-113 157-188 290-188 26 0 70 2 91 3v181c-11-2-60-10-108-10-161 0-279 109-279 260V0H158" id="U"/><path d="M158 0v-1118h175l1 205c55-151 181-225 313-225 147 0 245 90 285 228 53-141 190-228 352-228 194 0 352 125 352 384V0h-181v-749c0-161-105-225-225-225-151 0-243 103-243 244V0H807v-767c0-124-93-207-219-207-131 0-250 92-250 270V0H158" id="V"/><g id="b"><use transform="matrix(0.026041666666666668,0,0,0.026041666666666668,0,0)" xlink:href="#Q"/><use transform="matrix(0.026041666666666668,0,0,0.026041666666666668,32.65625,0)" xlink:href="#R"/><use transform="matrix(0.026041666666666668,0,0,0.026041666666666668,45.57291666666667,0)" xlink:href="#S"/><use transform="matrix(0.026041666666666668,0,0,0.026041666666666668,75.52083333333334,0)" xlink:href="#T"/><use transform="matrix(0.026041666666666668,0,0,0.026041666666666668,108.2291666666667,0)" xlink:href="#U"/><use transform="matrix(0.026041666666666668,0,0,0.026041666666666668,128.30729166666669,0)" xlink:href="#S"/><use transform="matrix(0.026041666666666668,0,0,0.026041666666666668,158.25520833333334,0)" xlink:href="#V"/></g><path fill="#3a414a" d="M180 0v-1490h510c348 0 508 194 508 460 0 198-88 351-276 417L1256 0h-220L726-579c-117 2-238 0-356 1V0H180zm190-747h312c235 0 327-108 327-283 0-177-92-293-329-293H370v576" id="W"/><path fill="#3a414a" d="M628 24c-324 0-524-230-524-574 0-343 198-582 503-582 237 0 487 146 487 559v75H286c9 234 145 362 343 362 132 0 231-58 273-172l174 48C1024-91 857 24 628 24zM287-650h624c-17-190-120-322-304-322-192 0-309 151-320 322" id="X"/><path fill="#3a414a" d="M471 26C259 26 90-98 90-318c0-256 228-303 435-329 202-27 287-16 287-108 0-139-79-219-234-219-161 0-248 86-283 164l-173-57c86-203 278-265 451-265 150 0 419 46 419 395V0H815v-152h-12C765-73 660 26 471 26zm31-159c199 0 310-134 310-271v-155c-30 35-226 55-295 64-131 17-246 59-246 186 0 116 97 176 231 176" id="Y"/><path fill="#3a414a" d="M577 24c-279 0-473-224-473-580 0-354 195-576 474-576 218 0 287 134 324 193h14v-551h180V0H922v-173h-20C865-111 790 24 577 24zm27-161c203 0 314-172 314-421 0-247-108-413-314-413-212 0-317 181-317 413 0 235 108 421 317 421" id="Z"/><g id="c"><use transform="matrix(0.0087890625,0,0,0.0087890625,0,0)" xlink:href="#W"/><use transform="matrix(0.0087890625,0,0,0.0087890625,11.3203125,0)" xlink:href="#X"/><use transform="matrix(0.0087890625,0,0,0.0087890625,21.990234375,0)" xlink:href="#Y"/><use transform="matrix(0.0087890625,0,0,0.0087890625,32.09765625,0)" xlink:href="#Z"/></g><path fill="#3a414a" d="M783 20c-382 0-661-292-661-764 0-473 279-766 661-766 302 0 548 182 601 489h-190c-42-204-217-313-411-313-268 0-476 208-476 590 0 381 209 588 476 588 195 0 369-110 411-313h190c-52 303-296 489-601 489" id="aa"/><path d="M52 0l541-1490h220L1361 0h-200l-149-416H398L254 0H52zm404-582h497c-103-290-145-390-251-756-108 377-145 460-246 756" id="ab"/><g id="d"><use transform="matrix(0.0087890625,0,0,0.0087890625,0,0)" xlink:href="#aa"/><use transform="matrix(0.0087890625,0,0,0.0087890625,13.1484375,0)" xlink:href="#ab"/></g><path d="M538 24C308 24 148-78 108-271l171-41c32 123 123 178 257 178 156 0 256-77 256-169 0-77-54-128-164-154l-186-44c-203-48-300-148-300-305 0-192 176-326 414-326 230 0 351 112 402 269l-163 42c-31-80-94-158-238-158-133 0-233 69-233 162 0 83 57 129 188 160l169 40c203 48 298 149 298 302 0 196-179 339-441 339" id="ac"/><path d="M598-1118v154H368v674c0 100 37 144 132 144 23 0 62-6 92-12L629-6c-37 13-88 20-134 20-193 0-307-107-307-290v-688H20v-154h168v-266h180v266h230" id="ad"/><g id="e"><use transform="matrix(0.0087890625,0,0,0.0087890625,0,0)" xlink:href="#ac"/><use transform="matrix(0.0087890625,0,0,0.0087890625,9.5009765625,0)" xlink:href="#L"/><use transform="matrix(0.0087890625,0,0,0.0087890625,19.9951171875,0)" xlink:href="#P"/><use transform="matrix(0.0087890625,0,0,0.0087890625,30.2783203125,0)" xlink:href="#U"/><use transform="matrix(0.0087890625,0,0,0.0087890625,36.755859375,0)" xlink:href="#L"/><use transform="matrix(0.0087890625,0,0,0.0087890625,47.25,0)" xlink:href="#ad"/></g><path d="M338-1490V0H158v-1490h180" id="ae"/><g id="f"><use transform="matrix(0.0087890625,0,0,0.0087890625,0,0)" xlink:href="#V"/><use transform="matrix(0.0087890625,0,0,0.0087890625,15.767578125,0)" xlink:href="#S"/><use transform="matrix(0.0087890625,0,0,0.0087890625,25.875,0)" xlink:href="#ad"/><use transform="matrix(0.0087890625,0,0,0.0087890625,31.587890625,0)" xlink:href="#L"/><use transform="matrix(0.0087890625,0,0,0.0087890625,42.08203125,0)" xlink:href="#U"/><use transform="matrix(0.0087890625,0,0,0.0087890625,49.1396484375,0)" xlink:href="#R"/><use transform="matrix(0.0087890625,0,0,0.0087890625,53.4990234375,0)" xlink:href="#S"/><use transform="matrix(0.0087890625,0,0,0.0087890625,63.6064453125,0)" xlink:href="#ae"/></g><path fill="#333" d="M180 0v-1490h190v1322h690V0H180" id="af"/><path fill="#333" d="M471 26C259 26 90-98 90-318c0-256 228-303 435-329 202-27 287-16 287-108 0-139-79-219-234-219-161 0-248 86-283 164l-173-57c86-203 278-265 451-265 150 0 419 46 419 395V0H815v-152h-12C765-73 660 26 471 26zm31-159c199 0 310-134 310-271v-155c-30 35-226 55-295 64-131 17-246 59-246 186 0 116 97 176 231 176" id="ag"/><path fill="#333" d="M158 0v-1118h175l1 205c55-151 181-225 313-225 147 0 245 90 285 228 53-141 190-228 352-228 194 0 352 125 352 384V0h-181v-749c0-161-105-225-225-225-151 0-243 103-243 244V0H807v-767c0-124-93-207-219-207-131 0-250 92-250 270V0H158" id="ah"/><path fill="#333" d="M677 24c-213 0-288-135-325-197h-20V0H158v-1490h180v551h14c37-59 106-193 324-193 279 0 474 222 474 576 0 356-194 580-473 580zm-27-161c209 0 317-186 317-421 0-232-105-413-317-413-206 0-314 166-314 413 0 249 111 421 314 421" id="ai"/><path fill="#333" d="M577 24c-279 0-473-224-473-580 0-354 195-576 474-576 218 0 287 134 324 193h14v-551h180V0H922v-173h-20C865-111 790 24 577 24zm27-161c203 0 314-172 314-421 0-247-108-413-314-413-212 0-317 181-317 413 0 235 108 421 317 421" id="aj"/><g id="g"><use transform="matrix(0.008072916666666667,0,0,0.008072916666666667,0,0)" xlink:href="#af"/><use transform="matrix(0.008072916666666667,0,0,0.008072916666666667,9.348437500000001,0)" xlink:href="#ag"/><use transform="matrix(0.008072916666666667,0,0,0.008072916666666667,18.632291666666667,0)" xlink:href="#ah"/><use transform="matrix(0.008072916666666667,0,0,0.008072916666666667,33.11510416666667,0)" xlink:href="#ai"/><use transform="matrix(0.008072916666666667,0,0,0.008072916666666667,43.23854166666667,0)" xlink:href="#aj"/><use transform="matrix(0.008072916666666667,0,0,0.008072916666666667,53.36197916666667,0)" xlink:href="#ag"/></g><path fill="#333" d="M657 26c-323 0-524-166-541-416h195c15 169 171 246 346 246 202 0 356-106 356-265 5-203-294-238-475-293-239-73-380-191-380-389 0-252 224-419 512-419 294 0 499 171 508 396H992c-17-145-151-228-328-228-193 0-321 102-321 242 0 156 175 211 284 241l149 41c160 44 422 134 422 412 0 244-197 432-541 432" id="ak"/><path fill="#333" d="M628 24c-324 0-524-230-524-574 0-343 198-582 503-582 237 0 487 146 487 559v75H286c9 234 145 362 343 362 132 0 231-58 273-172l174 48C1024-91 857 24 628 24zM287-650h624c-17-190-120-322-304-322-192 0-309 151-320 322" id="al"/><path fill="#333" d="M613 24c-304 0-509-231-509-576 0-350 205-580 509-580 216 0 392 114 453 309l-173 49c-33-115-133-197-280-197-223 0-326 196-326 419 0 220 103 415 326 415 150 0 252-85 285-206l172 49C1010-95 832 24 613 24" id="am"/><path fill="#333" d="M158 0v-1118h174v172h12c41-113 157-188 290-188 26 0 70 2 91 3v181c-11-2-60-10-108-10-161 0-279 109-279 260V0H158" id="an"/><path fill="#333" d="M598-1118v154H368v674c0 100 37 144 132 144 23 0 62-6 92-12L629-6c-37 13-88 20-134 20-193 0-307-107-307-290v-688H20v-154h168v-266h180v266h230" id="ao"/><path fill="#333" d="M538 24C308 24 148-78 108-271l171-41c32 123 123 178 257 178 156 0 256-77 256-169 0-77-54-128-164-154l-186-44c-203-48-300-148-300-305 0-192 176-326 414-326 230 0 351 112 402 269l-163 42c-31-80-94-158-238-158-133 0-233 69-233 162 0 83 57 129 188 160l169 40c203 48 298 149 298 302 0 196-179 339-441 339" id="ap"/><g id="h"><use transform="matrix(0.008072916666666667,0,0,0.008072916666666667,0,0)" xlink:href="#ak"/><use transform="matrix(0.008072916666666667,0,0,0.008072916666666667,10.607812500000001,0)" xlink:href="#al"/><use transform="matrix(0.008072916666666667,0,0,0.008072916666666667,20.246875000000003,0)" xlink:href="#am"/><use transform="matrix(0.008072916666666667,0,0,0.008072916666666667,29.692187500000003,0)" xlink:href="#an"/><use transform="matrix(0.008072916666666667,0,0,0.008072916666666667,35.641927083333336,0)" xlink:href="#al"/><use transform="matrix(0.008072916666666667,0,0,0.008072916666666667,45.28098958333334,0)" xlink:href="#ao"/><use transform="matrix(0.008072916666666667,0,0,0.008072916666666667,50.528385416666666,0)" xlink:href="#ap"/></g><path fill="#333" d="M180 0v-1490h270l367 940c28 72 75 218 110 339 35-117 81-264 110-339l362-940h271V0h-187c2-448-5-837 7-1287-157 497-311 829-483 1287H842C666-458 514-784 354-1284c12 438 5 843 7 1284H180" id="aq"/><path fill="#333" d="M338-670V0H158v-1118h173l1 207c72-158 192-221 342-221 226 0 378 139 378 422V0H872v-695c0-172-96-275-252-275-161 0-282 109-282 300" id="ar"/><path fill="#333" d="M611 442c-248 0-391-105-460-228l146-94c47 65 117 165 314 165 178 0 307-82 307-266v-224h-17C863-141 792-18 576-18c-268 0-472-195-472-546 0-346 197-568 476-568 216 0 288 133 326 193h17v-179h175V29c0 289-215 413-487 413zm-5-620c203 0 314-146 314-390 0-237-108-403-314-403-213 0-319 180-319 403 0 230 109 390 319 390" id="as"/><g id="i"><use transform="matrix(0.008072916666666667,0,0,0.008072916666666667,0,0)" xlink:href="#aq"/><use transform="matrix(0.008072916666666667,0,0,0.008072916666666667,14.934895833333336,0)" xlink:href="#ag"/><use transform="matrix(0.008072916666666667,0,0,0.008072916666666667,24.218750000000004,0)" xlink:href="#ar"/><use transform="matrix(0.008072916666666667,0,0,0.008072916666666667,33.98697916666667,0)" xlink:href="#ag"/><use transform="matrix(0.008072916666666667,0,0,0.008072916666666667,43.27083333333334,0)" xlink:href="#as"/><use transform="matrix(0.008072916666666667,0,0,0.008072916666666667,53.41041666666668,0)" xlink:href="#al"/><use transform="matrix(0.008072916666666667,0,0,0.008072916666666667,63.04947916666668,0)" xlink:href="#an"/></g><path d="M677 24c-213 0-288-135-325-197h-20V0H158v-1490h180v551h14c37-59 106-193 324-193 279 0 474 222 474 576 0 356-194 580-473 580zm-27-161c209 0 317-186 317-421 0-232-105-413-317-413-206 0-314 166-314 413 0 249 111 421 314 421" id="at"/><g id="j"><use transform="matrix(0.008072916666666667,0,0,0.008072916666666667,0,0)" xlink:href="#K"/><use transform="matrix(0.008072916666666667,0,0,0.008072916666666667,10.607812500000001,0)" xlink:href="#N"/><use transform="matrix(0.008072916666666667,0,0,0.008072916666666667,20.384114583333336,0)" xlink:href="#at"/><use transform="matrix(0.008072916666666667,0,0,0.008072916666666667,30.507552083333337,0)" xlink:href="#V"/><use transform="matrix(0.008072916666666667,0,0,0.008072916666666667,44.99036458333334,0)" xlink:href="#R"/><use transform="matrix(0.008072916666666667,0,0,0.008072916666666667,48.99453125,0)" xlink:href="#ad"/></g><path d="M783 20c-382 0-661-292-661-764 0-473 279-766 661-766 302 0 548 182 601 489h-190c-42-204-217-313-411-313-268 0-476 208-476 590 0 381 209 588 476 588 195 0 369-110 411-313h190c-52 303-296 489-601 489" id="au"/><path d="M180 0v-1490h510c348 0 508 194 508 460 0 198-88 351-276 417L1256 0h-220L726-579c-117 2-238 0-356 1V0H180zm190-747h312c235 0 327-108 327-283 0-177-92-293-329-293H370v576" id="av"/><g id="k"><use transform="matrix(0.008072916666666667,0,0,0.008072916666666667,0,0)" xlink:href="#au"/><use transform="matrix(0.008072916666666667,0,0,0.008072916666666667,12.077083333333334,0)" xlink:href="#K"/><use transform="matrix(0.008072916666666667,0,0,0.008072916666666667,22.684895833333336,0)" xlink:href="#av"/></g><path d="M593-100v-404H195v-159h398v-403h169v403h398v159H762v404H593" id="aw"/><use transform="matrix(0.008072916666666667,0,0,0.008072916666666667,0,0)" xlink:href="#aw" id="l"/><g id="m"><use transform="matrix(0.008072916666666667,0,0,0.008072916666666667,0,0)" xlink:href="#U"/><use transform="matrix(0.008072916666666667,0,0,0.008072916666666667,5.949739583333334,0)" xlink:href="#L"/><use transform="matrix(0.008072916666666667,0,0,0.008072916666666667,15.588802083333334,0)" xlink:href="#M"/><use transform="matrix(0.008072916666666667,0,0,0.008072916666666667,25.712239583333336,0)" xlink:href="#N"/><use transform="matrix(0.008072916666666667,0,0,0.008072916666666667,35.48854166666667,0)" xlink:href="#L"/><use transform="matrix(0.008072916666666667,0,0,0.008072916666666667,45.12760416666667,0)" xlink:href="#ac"/><use transform="matrix(0.008072916666666667,0,0,0.008072916666666667,53.85442708333334,0)" xlink:href="#ad"/><use transform="matrix(0.008072916666666667,0,0,0.008072916666666667,59.10182291666667,0)" xlink:href="#L"/><use transform="matrix(0.008072916666666667,0,0,0.008072916666666667,68.74088541666667,0)" xlink:href="#Q"/></g><path d="M98-1322v-168h1126v168H757V0H567v-1322H98" id="ax"/><path d="M180 0v-1490h190v1322h690V0H180" id="ay"/><g id="n"><use transform="matrix(0.008072916666666667,0,0,0.008072916666666667,0,0)" xlink:href="#ax"/><use transform="matrix(0.008072916666666667,0,0,0.008072916666666667,10.672395833333335,0)" xlink:href="#ax"/><use transform="matrix(0.008072916666666667,0,0,0.008072916666666667,21.34479166666667,0)" xlink:href="#ay"/></g><g id="o"><use transform="matrix(0.0087890625,0,0,0.0087890625,0,0)" xlink:href="#aa"/><use transform="matrix(0.0087890625,0,0,0.0087890625,13.1484375,0)" xlink:href="#ab"/></g><g id="p"><use transform="matrix(0.0087890625,0,0,0.0087890625,0,0)" xlink:href="#K"/><use transform="matrix(0.0087890625,0,0,0.0087890625,11.548828125,0)" xlink:href="#L"/><use transform="matrix(0.0087890625,0,0,0.0087890625,22.04296875,0)" xlink:href="#P"/><use transform="matrix(0.0087890625,0,0,0.0087890625,32.326171875,0)" xlink:href="#U"/><use transform="matrix(0.0087890625,0,0,0.0087890625,38.8037109375,0)" xlink:href="#L"/><use transform="matrix(0.0087890625,0,0,0.0087890625,49.2978515625,0)" xlink:href="#ad"/></g><path d="M180 0v-1490h901v168H370v510h643v168H370V0H180" id="az"/><path d="M613 24c-304 0-509-231-509-576 0-350 205-580 509-580 305 0 511 230 511 580 0 345-206 576-511 576zm0-161c226 0 329-195 329-415 0-222-103-419-329-419-223 0-326 196-326 419 0 220 103 415 326 415" id="aA"/><path d="M409 0L70-1118h191c89 329 165 560 243 925 75-353 154-601 240-925h192c85 325 161 564 235 922 77-354 157-598 244-922h191L1267 0h-179c-86-307-176-590-250-913C763-588 675-308 588 0H409" id="aB"/><g id="q"><use transform="matrix(0.008072916666666667,0,0,0.008072916666666667,0,0)" xlink:href="#az"/><use transform="matrix(0.008072916666666667,0,0,0.008072916666666667,9.106250000000001,0)" xlink:href="#aA"/><use transform="matrix(0.008072916666666667,0,0,0.008072916666666667,19.01979166666667,0)" xlink:href="#U"/><use transform="matrix(0.008072916666666667,0,0,0.008072916666666667,25.38125,0)" xlink:href="#aB"/><use transform="matrix(0.008072916666666667,0,0,0.008072916666666667,38.911458333333336,0)" xlink:href="#S"/><use transform="matrix(0.008072916666666667,0,0,0.008072916666666667,48.1953125,0)" xlink:href="#U"/><use transform="matrix(0.008072916666666667,0,0,0.008072916666666667,54.14505208333333,0)" xlink:href="#Q"/></g><g id="r"><use transform="matrix(0.008072916666666667,0,0,0.008072916666666667,0,0)" xlink:href="#ac"/><use transform="matrix(0.008072916666666667,0,0,0.008072916666666667,8.726822916666668,0)" xlink:href="#R"/><use transform="matrix(0.008072916666666667,0,0,0.008072916666666667,12.730989583333336,0)" xlink:href="#T"/><use transform="matrix(0.008072916666666667,0,0,0.008072916666666667,22.87057291666667,0)" xlink:href="#O"/><use transform="matrix(0.008072916666666667,0,0,0.008072916666666667,32.63880208333334,0)" xlink:href="#L"/><use transform="matrix(0.008072916666666667,0,0,0.008072916666666667,42.27786458333334,0)" xlink:href="#Q"/></g><path d="M370-1490V0H180v-1490h190" id="aC"/><path d="M180 0v-1490h270l367 940c28 72 75 218 110 339 35-117 81-264 110-339l362-940h271V0h-187c2-448-5-837 7-1287-157 497-311 829-483 1287H842C666-458 514-784 354-1284c12 438 5 843 7 1284H180" id="aD"/><g id="s"><use transform="matrix(0.008072916666666667,0,0,0.008072916666666667,0,0)" xlink:href="#aC"/><use transform="matrix(0.008072916666666667,0,0,0.008072916666666667,4.440104166666667,0)" xlink:href="#ab"/><use transform="matrix(0.008072916666666667,0,0,0.008072916666666667,15.847135416666667,0)" xlink:href="#aD"/></g><path d="M338-670V0H158v-1490h180v566c73-149 190-208 336-208 226 0 379 139 379 422V0H872v-695c0-172-96-275-252-275-161 0-282 109-282 300" id="aE"/><g id="t"><use transform="matrix(0.008072916666666667,0,0,0.008072916666666667,0,0)" xlink:href="#S"/><use transform="matrix(0.008072916666666667,0,0,0.008072916666666667,9.283854166666668,0)" xlink:href="#N"/><use transform="matrix(0.008072916666666667,0,0,0.008072916666666667,19.060156250000002,0)" xlink:href="#ad"/><use transform="matrix(0.008072916666666667,0,0,0.008072916666666667,24.46901041666667,0)" xlink:href="#aE"/><use transform="matrix(0.008072916666666667,0,0,0.008072916666666667,34.245312500000004,0)" xlink:href="#L"/><use transform="matrix(0.008072916666666667,0,0,0.008072916666666667,43.884375000000006,0)" xlink:href="#O"/><use transform="matrix(0.008072916666666667,0,0,0.008072916666666667,53.65260416666668,0)" xlink:href="#ad"/><use transform="matrix(0.008072916666666667,0,0,0.008072916666666667,59.06145833333334,0)" xlink:href="#R"/><use transform="matrix(0.008072916666666667,0,0,0.008072916666666667,63.06562500000001,0)" xlink:href="#P"/><use transform="matrix(0.008072916666666667,0,0,0.008072916666666667,72.67239583333335,0)" xlink:href="#S"/><use transform="matrix(0.008072916666666667,0,0,0.008072916666666667,81.95625000000003,0)" xlink:href="#ad"/><use transform="matrix(0.008072916666666667,0,0,0.008072916666666667,87.20364583333337,0)" xlink:href="#L"/><use transform="matrix(0.008072916666666667,0,0,0.008072916666666667,96.84270833333338,0)" xlink:href="#Q"/></g><g id="v"><use transform="matrix(0.008072916666666667,0,0,0.008072916666666667,0,0)" xlink:href="#U"/><use transform="matrix(0.008072916666666667,0,0,0.008072916666666667,5.949739583333334,0)" xlink:href="#L"/><use transform="matrix(0.008072916666666667,0,0,0.008072916666666667,15.588802083333334,0)" xlink:href="#M"/><use transform="matrix(0.008072916666666667,0,0,0.008072916666666667,25.712239583333336,0)" xlink:href="#N"/><use transform="matrix(0.008072916666666667,0,0,0.008072916666666667,35.48854166666667,0)" xlink:href="#L"/><use transform="matrix(0.008072916666666667,0,0,0.008072916666666667,45.12760416666667,0)" xlink:href="#ac"/><use transform="matrix(0.008072916666666667,0,0,0.008072916666666667,53.85442708333334,0)" xlink:href="#ad"/></g><path fill="#333" d="M52 0l541-1490h220L1361 0h-200l-149-416H398L254 0H52zm404-582h497c-103-290-145-390-251-756-108 377-145 460-246 756" id="aF"/><path fill="#333" d="M180 0v-1490h510c348 0 508 209 508 474 0 266-160 477-507 477H370V0H180zm190-706h312c236 0 327-133 327-310 0-176-91-307-329-307H370v617" id="aG"/><path fill="#333" d="M370-1490V0H180v-1490h190" id="aH"/><g id="w"><use transform="matrix(0.008072916666666667,0,0,0.008072916666666667,0,0)" xlink:href="#aF"/><use transform="matrix(0.008072916666666667,0,0,0.008072916666666667,11.407031250000001,0)" xlink:href="#aG"/><use transform="matrix(0.008072916666666667,0,0,0.008072916666666667,21.966406250000002,0)" xlink:href="#aH"/></g><path fill="#333" d="M789 20c-398 0-667-293-667-764 0-473 273-766 655-766 315 0 558 198 612 487h-196c-61-191-204-311-415-311-262 0-471 207-471 590 0 380 208 588 482 588 249 0 420-165 425-427H828v-166h572v163c0 370-256 606-611 606" id="aI"/><path fill="#333" d="M409 0L70-1118h191c89 329 165 560 243 925 75-353 154-601 240-925h192c85 325 161 564 235 922 77-354 157-598 244-922h191L1267 0h-179c-86-307-176-590-250-913C763-588 675-308 588 0H409" id="aJ"/><path fill="#333" d="M140 405l46-156c120 36 205 19 263-150l32-93L54-1118h197c107 313 237 620 324 950 87-331 219-637 326-950h196L606 167c-68 178-176 259-334 259-64 0-113-12-132-21" id="aK"/><g id="x"><use transform="matrix(0.008072916666666667,0,0,0.008072916666666667,0,0)" xlink:href="#aI"/><use transform="matrix(0.008072916666666667,0,0,0.008072916666666667,12.335416666666667,0)" xlink:href="#ag"/><use transform="matrix(0.008072916666666667,0,0,0.008072916666666667,21.619270833333335,0)" xlink:href="#ao"/><use transform="matrix(0.008072916666666667,0,0,0.008072916666666667,26.86666666666667,0)" xlink:href="#al"/><use transform="matrix(0.008072916666666667,0,0,0.008072916666666667,36.20703125000001,0)" xlink:href="#aJ"/><use transform="matrix(0.008072916666666667,0,0,0.008072916666666667,49.73723958333334,0)" xlink:href="#ag"/><use transform="matrix(0.008072916666666667,0,0,0.008072916666666667,58.778906250000006,0)" xlink:href="#aK"/></g><g id="y"><use transform="matrix(0.008072916666666667,0,0,0.008072916666666667,0,0)" xlink:href="#au"/><use transform="matrix(0.008072916666666667,0,0,0.008072916666666667,12.077083333333334,0)" xlink:href="#ae"/><use transform="matrix(0.008072916666666667,0,0,0.008072916666666667,16.08125,0)" xlink:href="#R"/><use transform="matrix(0.008072916666666667,0,0,0.008072916666666667,20.085416666666667,0)" xlink:href="#L"/><use transform="matrix(0.008072916666666667,0,0,0.008072916666666667,29.72447916666667,0)" xlink:href="#O"/><use transform="matrix(0.008072916666666667,0,0,0.008072916666666667,39.49270833333334,0)" xlink:href="#ad"/></g><path fill="#3a414a" d="M600 0L52-1490h200c166 485 304 806 458 1336 156-533 285-846 449-1336h202L819 0H600" id="aL"/><path fill="#3a414a" d="M338-1490V0H158v-1490h180" id="aM"/><path fill="#3a414a" d="M158 0v-1118h180V0H158zm91-1301c-68 0-125-53-125-119s57-119 125-119c69 0 126 53 126 119s-57 119-126 119" id="aN"/><g id="z"><use transform="matrix(0.0087890625,0,0,0.0087890625,0,0)" xlink:href="#aL"/><use transform="matrix(0.0087890625,0,0,0.0087890625,11.5048828125,0)" xlink:href="#Y"/><use transform="matrix(0.0087890625,0,0,0.0087890625,21.6123046875,0)" xlink:href="#aM"/><use transform="matrix(0.0087890625,0,0,0.0087890625,25.9716796875,0)" xlink:href="#aN"/><use transform="matrix(0.0087890625,0,0,0.0087890625,30.3310546875,0)" xlink:href="#Z"/></g><path fill="#3a414a" d="M657 26c-323 0-524-166-541-416h195c15 169 171 246 346 246 202 0 356-106 356-265 5-203-294-238-475-293-239-73-380-191-380-389 0-252 224-419 512-419 294 0 499 171 508 396H992c-17-145-151-228-328-228-193 0-321 102-321 242 0 156 175 211 284 241l149 41c160 44 422 134 422 412 0 244-197 432-541 432" id="aO"/><g id="A"><use transform="matrix(0.0087890625,0,0,0.0087890625,0,0)" xlink:href="#aa"/><use transform="matrix(0.0087890625,0,0,0.0087890625,13.1484375,0)" xlink:href="#aO"/><use transform="matrix(0.0087890625,0,0,0.0087890625,24.697265625,0)" xlink:href="#W"/></g><path fill="#3a414a" d="M338-670V0H158v-1118h173l1 207c72-158 192-221 342-221 226 0 378 139 378 422V0H872v-695c0-172-96-275-252-275-161 0-282 109-282 300" id="aP"/><g id="B"><use transform="matrix(0.0087890625,0,0,0.0087890625,0,0)" xlink:href="#Y"/><use transform="matrix(0.0087890625,0,0,0.0087890625,10.107421875,0)" xlink:href="#aP"/><use transform="matrix(0.0087890625,0,0,0.0087890625,20.7421875,0)" xlink:href="#Z"/></g><path fill="#3a414a" d="M538 24C308 24 148-78 108-271l171-41c32 123 123 178 257 178 156 0 256-77 256-169 0-77-54-128-164-154l-186-44c-203-48-300-148-300-305 0-192 176-326 414-326 230 0 351 112 402 269l-163 42c-31-80-94-158-238-158-133 0-233 69-233 162 0 83 57 129 188 160l169 40c203 48 298 149 298 302 0 196-179 339-441 339" id="aQ"/><path fill="#3a414a" d="M537 14c-226 0-379-139-379-422v-710h180v695c0 172 97 275 253 275 160 0 281-109 281-300v-670h181V0H879v-209C806-46 684 14 537 14" id="aR"/><g id="C"><use transform="matrix(0.0087890625,0,0,0.0087890625,0,0)" xlink:href="#aN"/><use transform="matrix(0.0087890625,0,0,0.0087890625,4.359375,0)" xlink:href="#aQ"/><use transform="matrix(0.0087890625,0,0,0.0087890625,13.8603515625,0)" xlink:href="#aQ"/><use transform="matrix(0.0087890625,0,0,0.0087890625,23.361328125,0)" xlink:href="#aR"/><use transform="matrix(0.0087890625,0,0,0.0087890625,34.0048828125,0)" xlink:href="#X"/></g><path fill="#3a414a" d="M613 24c-304 0-509-231-509-576 0-350 205-580 509-580 216 0 392 114 453 309l-173 49c-33-115-133-197-280-197-223 0-326 196-326 419 0 220 103 415 326 415 150 0 252-85 285-206l172 49C1010-95 832 24 613 24" id="aS"/><path fill="#3a414a" d="M158 0v-1118h174v172h12c41-113 157-188 290-188 26 0 70 2 91 3v181c-11-2-60-10-108-10-161 0-279 109-279 260V0H158" id="aT"/><path fill="#3a414a" d="M598-1118v154H368v674c0 100 37 144 132 144 23 0 62-6 92-12L629-6c-37 13-88 20-134 20-193 0-307-107-307-290v-688H20v-154h168v-266h180v266h230" id="aU"/><path fill="#3a414a" d="M678-1118v154H420V0H240v-964H20v-154h220v-149c0-194 155-293 318-293 85 0 141 18 168 30l-50 154c-19-6-47-17-97-17-111 0-159 58-159 166v109h258" id="aV"/><g id="D"><use transform="matrix(0.0087890625,0,0,0.0087890625,0,0)" xlink:href="#aS"/><use transform="matrix(0.0087890625,0,0,0.0087890625,10.283203125,0)" xlink:href="#X"/><use transform="matrix(0.0087890625,0,0,0.0087890625,20.77734375,0)" xlink:href="#aT"/><use transform="matrix(0.0087890625,0,0,0.0087890625,27.8349609375,0)" xlink:href="#aU"/><use transform="matrix(0.0087890625,0,0,0.0087890625,33.7236328125,0)" xlink:href="#aN"/><use transform="matrix(0.0087890625,0,0,0.0087890625,38.0830078125,0)" xlink:href="#aV"/><use transform="matrix(0.0087890625,0,0,0.0087890625,44.7451171875,0)" xlink:href="#aN"/><use transform="matrix(0.0087890625,0,0,0.0087890625,49.1044921875,0)" xlink:href="#P"/><use transform="matrix(0.0087890625,0,0,0.0087890625,59.5634765625,0)" xlink:href="#S"/><use transform="matrix(0.0087890625,0,0,0.0087890625,69.6708984375,0)" xlink:href="#ad"/><use transform="matrix(0.0087890625,0,0,0.0087890625,75.3837890625,0)" xlink:href="#L"/></g><g id="E"><use transform="matrix(0.0087890625,0,0,0.0087890625,0,0)" xlink:href="#W"/><use transform="matrix(0.0087890625,0,0,0.0087890625,11.3203125,0)" xlink:href="#X"/><use transform="matrix(0.0087890625,0,0,0.0087890625,21.814453125,0)" xlink:href="#aU"/><use transform="matrix(0.0087890625,0,0,0.0087890625,27.703125,0)" xlink:href="#aR"/><use transform="matrix(0.0087890625,0,0,0.0087890625,38.3466796875,0)" xlink:href="#aT"/><use transform="matrix(0.0087890625,0,0,0.0087890625,45.404296875,0)" xlink:href="#aP"/></g><path fill="#3a414a" d="M180 0v-1490h510c348 0 508 209 508 474 0 266-160 477-507 477H370V0H180zm190-706h312c236 0 327-133 327-310 0-176-91-307-329-307H370v617" id="aW"/><path fill="#3a414a" d="M180 0v-1490h908v168H370v486h669v168H370v500h727V0H180" id="aX"/><path fill="#3a414a" d="M180 0v-1490h270l367 940c28 72 75 218 110 339 35-117 81-264 110-339l362-940h271V0h-187c2-448-5-837 7-1287-157 497-311 829-483 1287H842C666-458 514-784 354-1284c12 438 5 843 7 1284H180" id="aY"/><g id="F"><use transform="matrix(0.0087890625,0,0,0.0087890625,0,0)" xlink:href="#aW"/><use transform="matrix(0.0087890625,0,0,0.0087890625,11.49609375,0)" xlink:href="#aX"/><use transform="matrix(0.0087890625,0,0,0.0087890625,22.3154296875,0)" xlink:href="#aY"/></g><g id="G"><use transform="matrix(0.0087890625,0,0,0.0087890625,0,0)" xlink:href="#aS"/><use transform="matrix(0.0087890625,0,0,0.0087890625,10.283203125,0)" xlink:href="#X"/><use transform="matrix(0.0087890625,0,0,0.0087890625,20.77734375,0)" xlink:href="#aT"/><use transform="matrix(0.0087890625,0,0,0.0087890625,27.8349609375,0)" xlink:href="#aU"/><use transform="matrix(0.0087890625,0,0,0.0087890625,33.7236328125,0)" xlink:href="#aN"/><use transform="matrix(0.0087890625,0,0,0.0087890625,38.0830078125,0)" xlink:href="#aV"/><use transform="matrix(0.0087890625,0,0,0.0087890625,44.7451171875,0)" xlink:href="#aN"/><use transform="matrix(0.0087890625,0,0,0.0087890625,49.1044921875,0)" xlink:href="#aS"/><use transform="matrix(0.0087890625,0,0,0.0087890625,59.5634765625,0)" xlink:href="#Y"/><use transform="matrix(0.0087890625,0,0,0.0087890625,69.6708984375,0)" xlink:href="#aU"/><use transform="matrix(0.0087890625,0,0,0.0087890625,75.3837890625,0)" xlink:href="#X"/></g><path fill="#3a414a" d="M593-100v-404H195v-159h398v-403h169v403h398v159H762v404H593" id="aZ"/><use transform="matrix(0.0087890625,0,0,0.0087890625,0,0)" xlink:href="#aZ" id="H"/><path fill="#3a414a" d="M65 0l393-574-370-544h210c88 136 192 297 267 435 67-142 176-302 264-435h206L661-564 1053 0H844c-94-144-206-310-287-458C484-308 366-142 273 0H65" id="ba"/><path fill="#3a414a" d="M158 418v-1536h174v179h20c37-59 106-193 324-193 279 0 474 222 474 576 0 356-194 580-473 580-213 0-288-135-325-197h-14v591H158zm492-555c209 0 317-186 317-421 0-232-105-413-317-413-206 0-314 166-314 413 0 249 111 421 314 421" id="bb"/><path d="M140 405l46-156c120 36 205 19 263-150l32-93L54-1118h197c107 313 237 620 324 950 87-331 219-637 326-950h196L606 167c-68 178-176 259-334 259-64 0-113-12-132-21" id="bc"/><g id="I"><use transform="matrix(0.0087890625,0,0,0.0087890625,0,0)" xlink:href="#X"/><use transform="matrix(0.0087890625,0,0,0.0087890625,10.08984375,0)" xlink:href="#ba"/><use transform="matrix(0.0087890625,0,0,0.0087890625,19.916015625,0)" xlink:href="#bb"/><use transform="matrix(0.0087890625,0,0,0.0087890625,30.9375,0)" xlink:href="#aN"/><use transform="matrix(0.0087890625,0,0,0.0087890625,35.296875,0)" xlink:href="#aT"/><use transform="matrix(0.0087890625,0,0,0.0087890625,42.0732421875,0)" xlink:href="#bc"/></g><path d="M158 418v-1536h174v179h20c37-59 106-193 324-193 279 0 474 222 474 576 0 356-194 580-473 580-213 0-288-135-325-197h-14v591H158zm492-555c209 0 317-186 317-421 0-232-105-413-317-413-206 0-314 166-314 413 0 249 111 421 314 421" id="bd"/><g id="J"><use transform="matrix(0.0087890625,0,0,0.0087890625,0,0)" xlink:href="#ad"/><use transform="matrix(0.0087890625,0,0,0.0087890625,5.888671875,0)" xlink:href="#R"/><use transform="matrix(0.0087890625,0,0,0.0087890625,10.248046875,0)" xlink:href="#V"/><use transform="matrix(0.0087890625,0,0,0.0087890625,26.015625,0)" xlink:href="#L"/><use transform="matrix(0.0087890625,0,0,0.0087890625,36.509765625,0)" xlink:href="#ac"/><use transform="matrix(0.0087890625,0,0,0.0087890625,46.0107421875,0)" xlink:href="#ad"/><use transform="matrix(0.0087890625,0,0,0.0087890625,51.9873046875,0)" xlink:href="#S"/><use transform="matrix(0.0087890625,0,0,0.0087890625,62.0947265625,0)" xlink:href="#V"/><use transform="matrix(0.0087890625,0,0,0.0087890625,77.8623046875,0)" xlink:href="#bd"/></g></defs></g></svg>